<?xml version="1.0" encoding="UTF-8" standalone="no"?>
<!-- Created with Inkscape (http://www.inkscape.org/) -->
<svg
   xmlns:svg="http://www.w3.org/2000/svg"
   xmlns="http://www.w3.org/2000/svg"
   version="1.0"
   width="1133.8583"
   height="319.96063"
   id="svg2168">
  <defs
     id="defs2170" />
  <g
     transform="translate(143.17736,-203.22606)"
     id="g2924">
    <path
       d="M 456.27755,352.87712 L 506.35227,352.87712 L 506.35227,403.01903 L 456.27755,403.01903 L 456.27755,352.87712 z"
       id="path2472"
       style="fill:#555959;fill-opacity:1;fill-rule:nonzero;stroke:none" />
    <path
       d="M 604.77705,352.87712 L 654.88165,352.87712 L 654.88165,403.01903 L 604.77705,403.01903 L 604.77705,352.87712 z"
       id="path2474"
       style="fill:#555959;fill-opacity:1;fill-rule:nonzero;stroke:none" />
    <path
       d="M 753.25415,352.87712 L 803.41847,352.87712 L 803.41847,403.01903 L 753.25415,403.01903 L 753.25415,352.87712 z"
       id="path2476"
       style="fill:#555959;fill-opacity:1;fill-rule:nonzero;stroke:none" />
    <path
       d="M 905.12087,352.87712 L 955.24787,352.87712 L 955.24787,403.01903 L 905.12087,403.01903 L 905.12087,352.87712 z"
       id="path2478"
       style="fill:#555959;fill-opacity:1;fill-rule:nonzero;stroke:none" />
    <path
       d="M 575.07715,433.41327 C 575.07715,466.6894 580.82595,472.08735 616.58835,472.41585 L 616.58835,486.37734 L 494.92176,486.37734 L 494.92176,472.41585 C 530.70648,472.08735 536.45533,466.6894 536.45533,433.41327 L 536.45533,250.53266 C 495.30253,251.2494 471.29922,278.45565 467.73045,328.19439 L 454.49317,326.05164 L 456.99429,238.70646 L 654.52325,238.70646 L 657.05425,326.05164 L 643.81695,328.19439 C 640.23325,278.45565 615.91635,251.2494 575.07715,250.53266 L 575.07715,433.41327 z"
       id="path2482"
       style="fill:#d00069;fill-opacity:1;fill-rule:nonzero;stroke:none" />
    <path
       d="M -57.05738,341.43168 L -61.76098,341.43168 L -88.65365,248.33765 L -88.65365,315.45733 C -88.65365,322.66206 -88.41474,326.97743 -87.85478,328.43331 C -86.36158,333.74913 -82.80774,336.44437 -77.26048,336.4817 L -75.26704,336.4817 L -75.26704,341.43168 L -107.12463,341.43168 L -107.12463,336.4817 L -104.66084,336.4817 C -102.28664,336.4817 -100.24841,335.63803 -98.44909,334.07763 C -96.80656,332.67402 -95.67173,330.38194 -95.15657,327.23128 C -94.78327,324.90187 -94.64141,320.90007 -94.64141,315.45733 L -94.64141,256.13966 C -94.64141,252.5037 -94.73847,250.18923 -95.04458,249.13652 C -95.67173,246.73245 -96.97828,245.22431 -99.04638,244.55237 C -100.18868,244.18653 -101.92827,243.98495 -104.30247,243.93269 L -107.12463,243.93269 L -107.12463,239.0499 L -77.30527,239.0499 L -55.54924,314.34489 L -33.28551,239.0499 L -3.2496402,239.0499 L -3.2496402,243.93269 L -5.3102702,243.93269 C -9.3344602,243.98495 -12.0297,244.78381 -13.47811,246.31435 C -14.45616,247.22521 -15.09824,248.59149 -15.32222,250.51773 C -15.66566,252.51863 -15.80752,255.36319 -15.80752,259.10368 L -15.80752,321.3555 C -15.80752,326.92517 -15.55367,330.38194 -14.97132,331.74823 C -14.10526,334.77197 -10.87246,336.38464 -5.3102702,336.4817 L -3.2496402,336.4817 L -3.2496402,341.43168 L -41.81919,341.43168 L -41.81919,336.4817 L -40.47531,336.4817 C -36.52577,336.4817 -33.85293,335.69776 -32.39705,334.12989 C -31.3742,333.24144 -30.77692,331.80049 -30.49321,329.85185 C -30.2319,327.87335 -30.03032,325.01386 -30.03032,321.3555 L -30.03032,248.33765 L -57.05738,341.43168 z"
       id="path2486"
       style="fill:#555959;fill-opacity:1;fill-rule:nonzero;stroke:none" />
    <path
       d="M 44.49568,305.02728 C 36.96244,305.13927 31.40024,306.15465 27.83894,308.17795 C 24.56882,309.925 22.11996,312.45599 20.55209,315.74851 C 19.37246,318.31683 18.78264,321.04193 18.78264,323.87902 C 18.78264,327.7091 19.67856,330.68805 21.48535,332.82334 C 23.2772,334.98849 25.71112,336.0636 28.7498,336.0636 C 32.38576,336.0636 35.62602,334.51066 38.50045,331.39732 C 41.23302,328.45571 42.995,324.70029 43.7864,320.1908 C 44.26423,317.82407 44.49568,314.2329 44.49568,309.41731 L 44.49568,305.02728 z M 70.46256,322.81138 C 70.31324,327.48512 69.81301,331.09122 68.96188,333.54754 C 66.84153,339.46065 63.10104,342.40973 57.73296,342.40973 C 53.87302,342.40973 50.72235,340.91652 48.34069,337.90024 C 46.98933,336.20545 45.98142,333.49528 45.23481,329.6876 C 39.8966,338.96789 32.63961,343.61176 23.51611,343.61176 C 18.61092,343.61176 14.46727,342.08123 11.04036,338.99029 C 6.9340398,335.2946 4.8584798,330.39688 4.8584798,324.30459 C 4.8584798,318.42135 6.9340398,313.49376 11.04036,309.58156 C 17.84939,303.26529 28.93645,299.9877 44.49568,299.84585 L 44.49568,291.50628 C 44.49568,285.84703 43.65201,281.71084 42.01695,279.29184 C 39.65768,275.85 35.66335,274.10295 30.01903,274.10295 C 25.6066,274.10295 22.22448,275.21539 19.90255,277.50746 C 24.0014,278.74682 26.10682,281.56899 26.10682,285.89929 C 26.10682,288.4676 25.2333,290.58049 23.57584,292.1409 C 21.93331,293.70876 19.85028,294.4703 17.2745,294.4703 C 14.79578,294.4703 12.83967,293.7237 11.3166,292.26782 C 9.6815398,290.58049 8.8378798,288.50493 8.8378798,285.93662 C 8.8378798,280.98663 11.45846,276.69366 16.67722,273.05024 C 20.92539,270.02649 26.31587,268.51835 32.87105,268.51835 C 42.89048,268.51835 49.97575,271.57943 54.08953,277.63438 C 56.40401,280.98663 57.54631,286.75788 57.54631,294.8884 L 57.54631,324.76002 C 57.54631,328.63489 57.98681,331.12855 58.83047,332.20366 C 59.51734,332.91293 60.25648,333.27877 61.09268,333.27877 C 62.63068,333.27877 63.80285,332.15139 64.54945,329.88918 C 64.87049,328.72448 65.199,326.34282 65.51257,322.81138 L 70.46256,322.81138 z"
       id="path2490"
       style="fill:#555959;fill-opacity:1;fill-rule:nonzero;stroke:none" />
    <path
       d="M 103.2534,273.1249 C 99.73689,273.1249 97.13871,274.34186 95.36926,276.76086 C 92.75615,280.32962 91.41226,285.31694 91.41226,291.77506 C 91.41226,298.78567 93.05479,303.89991 96.35478,307.19243 C 98.0645,308.88722 100.45363,309.73835 103.5595,309.73835 C 111.32418,309.73835 115.22146,303.78792 115.22146,291.92438 C 115.22146,279.38144 111.21966,273.1249 103.2534,273.1249 M 101.29729,337.15364 C 91.57651,340.20725 86.68626,344.90339 86.68626,351.27938 C 86.68626,354.29566 87.76883,356.93864 89.88919,359.23072 C 93.00253,362.53817 97.73599,364.2031 104.0224,364.2031 C 110.76423,364.2031 115.87847,362.28432 119.4323,358.53637 C 121.92596,355.93819 123.14292,352.87712 123.14292,349.43527 C 123.14292,345.8889 121.8289,343.231 119.22325,341.40928 C 116.73706,339.66223 112.57101,338.4602 106.59818,337.75092 C 105.37375,337.60907 103.5819,337.40749 101.29729,337.15364 M 94.12243,312.45599 C 90.74032,311.21662 87.88082,309.54423 85.46183,307.506 C 80.47451,303.31755 77.98086,298.12866 77.98086,291.87212 C 77.98086,286.42938 79.8623,281.55405 83.55799,277.25362 C 86.09644,274.22987 89.3591,272.01246 93.33103,270.46699 C 96.51903,269.15296 99.85635,268.51835 103.27579,268.51835 C 108.13619,268.51835 112.24997,269.42921 115.66195,271.25092 C 116.10991,268.41383 117.01331,266.26361 118.38706,264.71067 C 120.49248,262.25434 123.30718,261.05231 126.69676,261.05231 C 129.18295,261.05231 131.13158,261.76905 132.60986,263.1876 C 134.11053,264.68081 134.82727,266.40546 134.82727,268.46609 C 134.82727,270.355 134.15533,271.92286 132.8637,273.17716 C 131.78859,274.16268 130.45964,274.6853 128.78725,274.6853 C 127.00286,274.6853 125.59925,274.10295 124.554,272.97558 C 123.62075,271.88553 123.14292,270.60884 123.14292,269.1007 C 123.14292,268.22717 123.40423,267.31632 123.93432,266.3532 L 123.55355,266.59211 C 122.53071,266.59211 121.72438,266.93555 121.12709,267.80908 C 120.23117,269.04097 119.75334,270.66857 119.75334,272.52015 L 119.86533,273.74458 C 125.72617,278.74682 128.66032,284.533 128.66032,290.92393 C 128.66032,295.85152 127.22685,300.31621 124.33749,304.22841 C 121.12709,308.48405 116.73706,311.4854 111.18233,313.14286 C 109.22623,313.67295 106.38167,314.10598 102.68598,314.41955 C 97.85545,314.83765 94.74958,315.53199 93.36836,316.53244 C 92.23352,317.30891 91.63624,318.29443 91.63624,319.48153 C 91.63624,320.51931 92.03941,321.40777 92.85321,322.11704 C 94.31655,323.46839 98.27355,324.6107 104.769,325.61114 C 115.70675,327.21634 122.9712,329.03806 126.56983,331.12855 C 132.04991,334.36881 134.82727,338.99029 134.82727,345.12737 C 134.82727,352.11558 131.75873,357.77484 125.66644,362.09021 C 118.99181,366.76395 110.97328,369.13068 101.6258,369.13068 C 93.48035,369.13068 86.85051,367.43589 81.75867,364.03138 C 77.39851,361.12709 75.21842,357.20742 75.21842,352.22011 C 75.21842,346.97895 78.06298,342.82783 83.72224,339.81155 C 86.85051,338.07943 90.29982,336.89233 94.03284,336.15319 C 90.1729,335.35432 87.32087,334.25682 85.46183,332.86067 C 82.565,330.77764 81.16139,327.92562 81.16139,324.33445 C 81.16139,318.74986 85.49169,314.78539 94.12243,312.45599"
       id="path2494"
       style="fill:#555959;fill-opacity:1;fill-rule:nonzero;stroke:none" />
    <path
       d="M 138.65735,270.72083 L 170.51494,270.72083 L 170.51494,275.49163 L 167.78237,275.49163 C 163.68351,275.49163 161.62288,276.60407 161.62288,278.87375 C 161.62288,279.82193 161.95139,281.20315 162.67559,282.9726 L 177.98844,323.16975 L 191.30785,285.98888 C 192.22617,283.40563 192.704,281.3674 192.704,279.89659 C 192.704,276.98484 190.46419,275.49163 185.99203,275.49163 L 182.60245,275.49163 L 182.60245,270.72083 L 207.96458,270.72083 L 207.96458,275.49163 L 206.29966,275.49163 C 204.50781,275.49163 202.98474,276.21584 201.77524,277.63438 C 200.97637,278.58257 200.15511,280.27736 199.22932,282.65903 L 173.81492,351.04047 C 171.381,357.42393 168.73802,361.99315 165.84866,364.77798 C 162.83985,367.70467 159.16656,369.13068 154.73173,369.13068 C 151.03604,369.13068 147.90777,368.04064 145.27226,365.89042 C 142.18132,363.23251 140.63585,359.93999 140.63585,355.93819 C 140.63585,353.45947 141.30779,351.38391 142.71141,349.72645 C 144.21955,347.8898 146.24284,346.96401 148.82609,346.96401 C 151.61839,346.96401 153.79101,348.01673 155.35141,350.12961 C 156.22494,351.42124 156.68783,352.87712 156.68783,354.53458 C 156.68783,356.80425 155.87403,358.71556 154.20911,360.28343 C 153.20119,361.23161 151.86477,361.8289 150.2969,362.09021 C 151.44667,363.48636 152.99214,364.2031 154.97064,364.2031 C 157.94959,364.2031 160.51044,363.03839 162.69799,360.64926 C 164.69143,358.46171 166.93124,353.89996 169.3577,346.90429 L 170.9853,342.08123 L 149.9684,285.3692 C 148.3632,281.07623 146.96705,278.41832 145.82475,277.36561 C 144.51819,276.08891 142.55462,275.49163 139.92658,275.49163 L 138.65735,275.49163 L 138.65735,270.72083 z"
       id="path2498"
       style="fill:#555959;fill-opacity:1;fill-rule:nonzero;stroke:none" />
    <path
       d="M 247.94522,305.02728 C 240.40452,305.13927 234.86472,306.15465 231.25116,308.17795 C 228.0109,309.925 225.6143,312.45599 223.99417,315.74851 C 222.78467,318.31683 222.20232,321.04193 222.20232,323.87902 C 222.20232,327.7091 223.07584,330.68805 224.92742,332.82334 C 226.72674,334.98849 229.13827,336.0636 232.16948,336.0636 C 235.82037,336.0636 239.06063,334.51066 241.95745,331.39732 C 244.66763,328.45571 246.43708,324.70029 247.24341,320.1908 C 247.71377,317.82407 247.94522,314.2329 247.94522,309.41731 L 247.94522,305.02728 z M 273.89717,322.81138 C 273.77024,327.48512 273.27002,331.09122 272.37409,333.54754 C 270.27614,339.46065 266.55058,342.40973 261.1825,342.40973 C 257.2703,342.40973 254.20176,340.91652 251.7529,337.90024 C 250.40901,336.20545 249.38616,333.49528 248.70675,329.6876 C 243.30881,338.96789 236.10408,343.61176 226.95818,343.61176 C 222.053,343.61176 217.90935,342.08123 214.49737,338.99029 C 210.36865,335.2946 208.32295,330.39688 208.32295,324.30459 C 208.32295,318.42135 210.36865,313.49376 214.49737,309.58156 C 221.26906,303.26529 232.37853,299.9877 247.94522,299.84585 L 247.94522,291.50628 C 247.94522,285.84703 247.10156,281.71084 245.45156,279.29184 C 243.08483,275.85 239.0905,274.10295 233.47604,274.10295 C 229.05614,274.10295 225.71136,275.21539 223.32969,277.50746 C 227.45094,278.74682 229.53397,281.56899 229.53397,285.89929 C 229.53397,288.4676 228.69777,290.58049 227.04778,292.1409 C 225.38285,293.70876 223.26996,294.4703 220.70911,294.4703 C 218.26025,294.4703 216.27428,293.7237 214.77361,292.26782 C 213.10868,290.58049 212.27995,288.50493 212.27995,285.93662 C 212.27995,280.98663 214.908,276.69366 220.08943,273.05024 C 224.36747,270.02649 229.75048,268.51835 236.26087,268.51835 C 246.36242,268.51835 253.44022,271.57943 257.55401,277.63438 C 259.83862,280.98663 260.98092,286.75788 260.98092,294.8884 L 260.98092,324.76002 C 260.98092,328.63489 261.43635,331.12855 262.25015,332.20366 C 262.92956,332.91293 263.69109,333.27877 264.51982,333.27877 C 266.07276,333.27877 267.24493,332.15139 267.98406,329.88918 C 268.34243,328.72448 268.64854,326.34282 268.96212,322.81138 L 273.89717,322.81138 z"
       id="path2502"
       style="fill:#555959;fill-opacity:1;fill-rule:nonzero;stroke:none" />
    <path
       d="M 302.08146,269.66812 L 301.59617,289.46805 C 305.93394,275.92466 312.30247,269.11563 320.79135,269.11563 C 324.28546,269.11563 327.11509,270.16088 329.31757,272.22897 C 331.30353,274.05068 332.33385,276.43982 332.33385,279.38144 C 332.33385,282.15134 331.36326,284.35382 329.56395,285.98888 C 328.04834,287.31783 326.35355,287.95991 324.35265,287.95991 C 322.12031,287.95991 320.30606,287.19091 318.82778,285.60811 C 317.54363,284.31649 316.88661,282.58437 316.88661,280.60587 C 316.88661,278.16447 318.11104,276.08891 320.6719,274.41652 C 319.63412,274.21494 318.95471,274.10295 318.59634,274.10295 C 316.02802,274.10295 313.62396,275.76041 311.31695,279.05293 C 305.50091,287.26557 302.63395,300.62231 302.63395,319.13809 L 302.63395,324.24486 C 302.63395,329.34416 302.7534,332.24099 302.99232,332.91293 C 303.88078,335.40659 306.18032,336.62355 309.95813,336.66088 L 315.17689,336.66088 L 315.17689,341.43168 L 279.30258,341.43168 L 279.30258,336.66088 L 281.75144,336.66088 C 284.67813,336.62355 286.68649,336.00387 287.67201,334.82424 C 288.9039,333.52515 289.50119,330.07584 289.52358,324.24486 L 289.52358,287.75833 C 289.50119,282.09161 288.9039,278.58257 287.67201,277.36561 C 286.68649,276.14118 284.67813,275.52149 281.75144,275.52149 L 280.03425,275.52149 L 280.03425,270.72083 L 302.08146,269.66812 z"
       id="path2506"
       style="fill:#555959;fill-opacity:1;fill-rule:nonzero;stroke:none" />
    <path
       d="M -62.12682,388.14668 L -62.12682,465.51723 C -62.12682,471.12423 -61.85804,474.581 -61.31302,475.89503 C -60.42456,478.94864 -57.19177,480.55383 -51.68929,480.62849 L -48.12053,480.62849 L -48.12053,485.54115 L -90.41564,485.54115 L -90.41564,480.62849 L -86.92153,480.62849 C -82.93466,480.62849 -80.23943,479.82216 -78.74622,478.31402 C -77.72337,477.32851 -77.10369,475.89503 -76.85731,473.98372 C -76.5512,472.05002 -76.39442,469.21292 -76.39442,465.51723 L -76.39442,388.14668 L -79.62721,388.14668 C -84.58466,388.14668 -89.01949,389.58763 -92.98395,392.48445 C -98.91945,396.90434 -102.3389,405.71427 -103.25722,418.95902 L -107.74431,418.7425 L -106.93798,383.2191 L -31.14276,383.2191 L -30.56041,418.7425 L -35.13709,418.95902 C -36.145,410.58959 -37.91445,404.05681 -40.37825,399.41293 C -42.59566,395.23195 -45.3357,392.2978 -48.65808,390.53581 C -51.62957,388.98288 -55.35512,388.16908 -59.82728,388.14668 L -62.12682,388.14668 z"
       id="path2510"
       style="fill:#555959;fill-opacity:1;fill-rule:nonzero;stroke:none" />
    <path
       d="M 10.08471,444.38834 C 10.08471,438.16167 9.3978298,432.99517 8.0614098,428.91871 C 5.5976198,421.78118 1.7600698,418.24974 -3.4960202,418.24974 C -9.3493902,418.24974 -13.55277,422.63978 -16.0315,431.41237 C -17.02448,434.95874 -17.56203,439.31144 -17.58443,444.38834 L 10.08471,444.38834 z M 24.27018,449.70416 L -17.75615,449.70416 C -17.71882,459.64146 -16.68104,466.99551 -14.66521,471.70658 C -11.88785,478.47828 -7.0871802,481.80813 -0.25576021,481.80813 C 5.0227298,481.80813 9.4500898,479.71017 12.99646,475.45453 C 14.96003,473.14752 16.90866,469.97446 18.8573,465.9204 L 23.42652,468.30207 C 16.98332,481.30044 8.3301898,487.7063 -2.6224902,487.7063 C -10.59622,487.7063 -17.25593,485.02599 -22.38509,479.51605 C -28.80589,472.63237 -31.98642,462.7324 -31.98642,449.77882 C -31.98642,437.83316 -28.80589,428.33636 -22.38509,421.16897 C -17.38285,415.53957 -11.2831,412.66515 -4.1530302,412.66515 C 6.3516898,412.66515 14.22089,417.9959 19.51431,428.62754 C 22.35887,434.28679 23.9566,441.3646 24.27018,449.70416"
       id="path2514"
       style="fill:#555959;fill-opacity:1;fill-rule:nonzero;stroke:none" />
    <path
       d="M 52.64112,382.16638 L 52.64112,468.39166 C 52.70832,474.14797 53.328,477.65701 54.4927,479.00836 C 55.56781,480.17307 57.53138,480.77035 60.42074,480.84501 L 62.92186,480.84501 L 62.92186,485.54115 L 29.26496,485.54115 L 29.26496,480.84501 L 31.75861,480.84501 C 34.7077,480.77035 36.71606,480.17307 37.67172,479.00836 C 38.89615,477.65701 39.53076,474.14797 39.59049,468.39166 L 39.59049,400.2118 C 39.53076,394.56001 38.89615,391.02111 37.67172,389.78921 C 36.71606,388.58718 34.7077,387.9675 31.75861,387.91523 L 30.01903,387.91523 L 30.01903,383.2191 L 52.64112,382.16638 z"
       id="path2518"
       style="fill:#555959;fill-opacity:1;fill-rule:nonzero;stroke:none" />
    <path
       d="M 109.37555,444.38834 C 109.37555,438.16167 108.66627,432.99517 107.31492,428.91871 C 104.85859,421.78118 101.02105,418.24974 95.77243,418.24974 C 89.94892,418.24974 85.74554,422.63978 83.23695,431.41237 C 82.22903,434.95874 81.69894,439.31144 81.66161,444.38834 L 109.37555,444.38834 z M 123.51622,449.70416 L 81.4899,449.70416 C 81.55709,459.64146 82.565,466.99551 84.59577,471.70658 C 87.43286,478.47828 92.18873,481.80813 98.98282,481.80813 C 104.27624,481.80813 108.71854,479.71017 112.2873,475.45453 C 114.21354,473.14752 116.16218,469.97446 118.13321,465.9204 L 122.68749,468.30207 C 116.2667,481.30044 107.5837,487.7063 96.61609,487.7063 C 88.62743,487.7063 82.03492,485.02599 76.85349,479.51605 C 70.44762,472.63237 67.25963,462.7324 67.25963,449.77882 C 67.25963,437.83316 70.44762,428.33636 76.83855,421.16897 C 81.89306,415.53957 87.98535,412.66515 95.11541,412.66515 C 105.61266,412.66515 113.45947,417.9959 118.81262,428.62754 C 121.62732,434.28679 123.23998,441.3646 123.51622,449.70416"
       id="path2522"
       style="fill:#555959;fill-opacity:1;fill-rule:nonzero;stroke:none" />
    <path
       d="M 200.75239,485.54115 L 181.46761,485.54115 L 159.45773,449.84602 L 153.44757,455.32609 L 153.44757,468.39166 C 153.47744,474.14797 154.12698,477.65701 155.31408,479.00836 C 156.35933,480.17307 158.36022,480.77035 161.30184,480.84501 L 164.1688,480.84501 L 164.1688,485.54115 L 130.1162,485.54115 L 130.1162,480.84501 L 132.57253,480.84501 C 135.51415,480.77035 137.50758,480.17307 138.47816,479.00836 C 139.71006,477.65701 140.31481,474.14797 140.35961,468.39166 L 140.35961,400.2118 C 140.31481,394.56001 139.71006,391.02111 138.47816,389.78921 C 137.50758,388.58718 135.51415,387.9675 132.57253,387.91523 L 130.81801,387.91523 L 130.81801,383.2191 L 153.44757,382.16638 L 153.44757,447.95711 L 173.84479,430.08342 C 176.84614,427.38818 178.39907,425.05877 178.39907,423.05787 C 178.39907,420.78073 176.18166,419.61603 171.79163,419.61603 L 169.46222,419.61603 L 169.46222,414.8527 L 199.74447,414.8527 L 199.74447,419.61603 L 198.21394,419.61603 C 196.08612,419.61603 194.2868,420.0192 192.79359,420.78073 C 191.08387,421.63933 188.65741,423.55063 185.44701,426.36533 L 168.55883,441.56618 L 187.08954,471.07197 C 189.4936,474.81992 191.18093,477.11199 192.19631,477.98552 C 194.10015,479.93415 196.53408,480.88234 199.55782,480.83008 L 200.75239,480.83008 L 200.75239,485.54115 z"
       id="path2526"
       style="fill:#555959;fill-opacity:1;fill-rule:nonzero;stroke:none" />
    <path
       d="M 236.80589,417.67486 C 233.34911,417.67486 230.22084,419.05608 227.51067,421.9081 C 222.96385,426.66397 220.70911,435.83226 220.70911,449.48765 C 220.70911,471.65432 226.09212,482.80858 236.80589,482.80858 C 247.45993,482.80858 252.77574,471.8335 252.77574,449.84602 C 252.77574,439.85646 251.65584,432.1963 249.29657,426.85809 C 247.87056,423.64022 245.75767,421.10924 242.99523,419.37712 C 241.07646,418.19748 239.0233,417.67486 236.80589,417.67486 M 236.80589,412.66515 C 246.36242,412.66515 254.0823,416.46536 260.04767,424.05832 C 265.26643,430.65083 267.87954,439.31144 267.87954,450.08493 C 267.87954,460.98535 265.26643,469.74301 260.04767,476.40272 C 254.1495,483.97328 246.28776,487.7063 236.35793,487.7063 C 226.98805,487.7063 219.38016,483.97328 213.47452,476.40272 C 208.25576,469.74301 205.67251,461.04508 205.67251,450.23425 C 205.67251,439.3637 208.25576,430.65083 213.47452,424.05832 C 219.43988,416.46536 227.20456,412.66515 236.80589,412.66515"
       id="path2530"
       style="fill:#555959;fill-opacity:1;fill-rule:nonzero;stroke:none" />
    <path
       d="M 358.95774,485.54115 L 358.95774,442.36505 C 358.95774,433.41327 358.32313,427.67935 357.08376,425.13343 C 355.39644,421.71399 352.78333,420.0192 349.24442,420.0192 C 344.95892,420.0192 341.50214,422.47552 338.90396,427.35085 C 337.45555,429.8669 336.53723,432.74133 336.1042,435.94426 C 335.73836,438.23633 335.55171,442.64129 335.55171,449.09941 L 335.55171,468.39166 C 335.60397,474.14797 336.23112,477.65701 337.45555,479.00836 C 338.44853,480.17307 340.44197,480.77035 343.37612,480.84501 L 345.52634,480.84501 L 345.52634,485.54115 L 322.50108,485.54115 L 322.50108,444.73178 C 322.50108,437.79583 322.32936,433.24902 322.03818,431.15852 C 320.98547,423.76715 317.76761,420.0192 312.3622,420.0192 C 308.0095,420.0192 304.53779,422.51285 302.08146,427.42551 C 300.76744,429.80717 299.93124,432.33816 299.47581,434.95874 C 299.00545,437.69131 298.75161,442.36505 298.75161,449.09941 L 298.75161,468.39166 C 298.77401,474.14797 299.35636,477.65701 300.46133,479.00836 C 301.52897,480.17307 303.55227,480.77035 306.56108,480.84501 L 308.72623,480.84501 L 308.72623,485.54115 L 275.41277,485.54115 L 275.41277,480.84501 L 277.85417,480.84501 C 280.70619,480.77035 282.67723,480.17307 283.70754,479.00836 C 284.97677,477.70927 285.60391,474.22263 285.66364,468.39166 L 285.66364,431.88273 C 285.60391,426.22347 284.97677,422.72937 283.70754,421.49001 C 282.67723,420.25064 280.70619,419.66829 277.85417,419.66829 L 276.15191,419.66829 L 276.15191,414.8527 L 297.75862,413.81492 L 297.75862,426.36533 C 298.75161,423.81941 300.15522,421.54973 301.97694,419.6011 C 305.82941,415.41265 310.44342,413.29976 315.84137,413.29976 C 324.12121,413.29976 330.11643,417.9959 333.80466,427.35085 C 338.32908,417.9959 344.64534,413.29976 352.7236,413.29976 C 357.15096,413.29976 361.07063,414.62872 364.47514,417.27169 C 367.91699,420.0192 370.09707,423.96873 371.19458,428.97098 C 371.68734,431.71848 372.02331,435.59335 372.02331,440.66279 L 372.02331,468.39166 C 372.0681,474.14797 372.68032,477.65701 373.85995,479.00836 C 374.89773,480.17307 376.8389,480.77035 379.78799,480.84501 L 381.51264,480.84501 L 381.51264,485.54115 L 358.95774,485.54115 z"
       id="path2534"
       style="fill:#555959;fill-opacity:1;fill-rule:nonzero;stroke:none" />
  </g>
</svg>
