<?xml version="1.0" encoding="utf-8"?>
<!-- Generator: Adobe Illustrator 23.1.1, SVG Export Plug-In . SVG Version: 6.00 Build 0)  -->
<!DOCTYPE svg PUBLIC "-//W3C//DTD SVG 1.1//EN" "http://www.w3.org/Graphics/SVG/1.1/DTD/svg11.dtd" [
	<!ENTITY ns_extend "http://ns.adobe.com/Extensibility/1.0/">
	<!ENTITY ns_ai "http://ns.adobe.com/AdobeIllustrator/10.0/">
	<!ENTITY ns_graphs "http://ns.adobe.com/Graphs/1.0/">
	<!ENTITY ns_vars "http://ns.adobe.com/Variables/1.0/">
	<!ENTITY ns_imrep "http://ns.adobe.com/ImageReplacement/1.0/">
	<!ENTITY ns_sfw "http://ns.adobe.com/SaveForWeb/1.0/">
	<!ENTITY ns_custom "http://ns.adobe.com/GenericCustomNamespace/1.0/">
	<!ENTITY ns_adobe_xpath "http://ns.adobe.com/XPath/1.0/">
]>
<svg version="1.1" id="Layer_1" xmlns:x="&ns_extend;" xmlns:i="&ns_ai;" xmlns:graph="&ns_graphs;"
	 xmlns="http://www.w3.org/2000/svg" xmlns:xlink="http://www.w3.org/1999/xlink" x="0px" y="0px" viewBox="0 0 981.5 1000"
	 style="enable-background:new 0 0 981.5 1000;" xml:space="preserve">
<style type="text/css">
	.st0{fill:#231F20;}
	.st1{fill-rule:evenodd;clip-rule:evenodd;fill:url(#SVGID_1_);}
	.st2{fill-rule:evenodd;clip-rule:evenodd;fill:url(#SVGID_2_);}
	.st3{fill-rule:evenodd;clip-rule:evenodd;fill:url(#SVGID_3_);}
	.st4{fill-rule:evenodd;clip-rule:evenodd;fill:url(#SVGID_4_);}
	.st5{fill:url(#SVGID_5_);}
	.st6{fill-rule:evenodd;clip-rule:evenodd;fill:url(#SVGID_6_);}
	.st7{fill-rule:evenodd;clip-rule:evenodd;fill:url(#SVGID_7_);}
	.st8{fill-rule:evenodd;clip-rule:evenodd;fill:url(#SVGID_8_);}
</style>
<metadata>
	<sfw  xmlns="&ns_sfw;">
		<slices></slices>
		<sliceSourceBounds  bottomLeftOrigin="true" height="1000" width="981.5" x="-440.8" y="-450"></sliceSourceBounds>
	</sfw>
</metadata>
<path class="st0" d="M332.6,832.6v93c0,47.3-26,74.4-71.4,74.4c-44.9,0-70.7-26.6-70.7-73v-94.3h33.5v93.2
	c0,27.6,13.4,42.3,37.7,42.3c24.2,0,37.5-14.3,37.5-41.1v-94.4C299.1,832.6,332.6,832.6,332.6,832.6z M685.9,946l36.5-113.3h34.7
	l-57.3,164.9h-27.9l-37.5-108.3l-37.5,108.3h-27.7l-57.5-164.9h35.6L583.7,946l37.4-113.4h27.3C648.4,832.6,685.9,946,685.9,946z
	 M35.1,899.1h75.6v-66.5h33.5v164.9h-33.5v-67H35.1v67H1.6V832.6h33.5V899.1z M452.1,833.6l72,163.9H489l-14.8-34.3h-75.5l-15,34.3
	h-34.2l72.6-164.8h29.3L452.1,833.6z M784.1,832.7h121.4v30h-88.3v33.8h60.9v30h-60.9v40.8h91.5v30H784.1
	C784.1,997.4,784.1,832.7,784.1,832.7z M948.5,832.6h33v164.7h-33V832.6z M436.4,874.3l-25.2,59h50.6
	C461.8,933.4,436.4,874.3,436.4,874.3z"/>
<radialGradient id="SVGID_1_" cx="246.1954" cy="748.5923" r="10" gradientTransform="matrix(70.7162 0 0 70.4313 -16791.7656 -52633.8555)" gradientUnits="userSpaceOnUse">
	<stop  offset="0" style="stop-color:#FAB8A0"/>
	<stop  offset="0.4" style="stop-color:#EE2C28"/>
	<stop  offset="0.8" style="stop-color:#DE1A21"/>
	<stop  offset="0.9" style="stop-color:#C9161D"/>
	<stop  offset="1" style="stop-color:#9A080C"/>
</radialGradient>
<path class="st1" d="M70.5,292.1c3.3,61.5,49.7,97.9,49.7,97.9c74.8,72.6,256,164.3,298.1,185.1c0.6,0.2,2.8,0.9,4-0.7
	c0,0,1.8-1.4,0.8-3.6h0c-115.3-250.9-273-441.1-273-441.1S64.4,210.8,70.5,292.1z"/>
<radialGradient id="SVGID_2_" cx="246.1898" cy="748.5894" r="10" gradientTransform="matrix(70.8691 0 0 70.5837 -16828.7012 -52748.3789)" gradientUnits="userSpaceOnUse">
	<stop  offset="0" style="stop-color:#FAB8A0"/>
	<stop  offset="0.4" style="stop-color:#EE2C28"/>
	<stop  offset="0.8" style="stop-color:#DE1A21"/>
	<stop  offset="0.9" style="stop-color:#C9161D"/>
	<stop  offset="1" style="stop-color:#9A080C"/>
</radialGradient>
<path class="st2" d="M88.9,644.2c32.7,58.1,87.8,103.2,145.2,89.3c39.6-9.9,129.3-72.2,158.9-93.2c2.3-2,1.4-3.8,1.4-3.8
	c-0.7-2.7-3.9-2.8-3.9-2.8L88.9,644.2z"/>
<radialGradient id="SVGID_3_" cx="246.1927" cy="748.5872" r="10" gradientTransform="matrix(70.8552 0 0 70.5698 -16825.3242 -52737.9492)" gradientUnits="userSpaceOnUse">
	<stop  offset="0" style="stop-color:#FAB8A0"/>
	<stop  offset="0.4" style="stop-color:#EE2C28"/>
	<stop  offset="0.8" style="stop-color:#DE1A21"/>
	<stop  offset="0.9" style="stop-color:#C9161D"/>
	<stop  offset="1" style="stop-color:#9A080C"/>
</radialGradient>
<path class="st3" d="M16.7,509.4c32.7,68.9,95.2,89.8,95.2,89.8c28.8,11.8,57.7,12.6,57.7,12.6c4.5,0.8,179.4,0.1,226.2-0.1
	c2,0,3.1-2,3.1-2c1.5-2.4-1.1-4.5-1.1-4.5C265.4,516.1,8.6,379.4,8.6,379.4C-14.7,451.4,16.7,509.4,16.7,509.4z"/>
<radialGradient id="SVGID_4_" cx="246.1898" cy="748.606" r="10" gradientTransform="matrix(70.8512 0 0 70.5658 -16824.3809 -52734.8008)" gradientUnits="userSpaceOnUse">
	<stop  offset="0" style="stop-color:#FAB8A0"/>
	<stop  offset="0.4" style="stop-color:#EE2C28"/>
	<stop  offset="0.8" style="stop-color:#DE1A21"/>
	<stop  offset="0.9" style="stop-color:#C9161D"/>
	<stop  offset="1" style="stop-color:#9A080C"/>
</radialGradient>
<path class="st4" d="M370.4,9.2c-79.9,20.5-98.7,92.7-98.7,92.7c-14.6,45.4,0.4,95.3,0.4,95.3c26.6,117.8,157.8,311.4,186,352
	c2,2,3.6,1.3,3.6,1.3c3-0.8,2.9-3.7,2.9-3.7C507.9,114.6,419,0,419,0C405.9,1.2,370.4,9.2,370.4,9.2z"/>
<radialGradient id="SVGID_5_" cx="246.1966" cy="753.4136" r="10" gradientTransform="matrix(70.8601 0 0 -70.5746 -16826.4746 53261.4883)" gradientUnits="userSpaceOnUse">
	<stop  offset="0" style="stop-color:#FAB8A0"/>
	<stop  offset="0.4" style="stop-color:#EE2C28"/>
	<stop  offset="0.8" style="stop-color:#DE1A21"/>
	<stop  offset="0.9" style="stop-color:#C9161D"/>
	<stop  offset="1" style="stop-color:#9A080C"/>
</radialGradient>
<path class="st5" d="M516.5,547.1c0.3,2.7,2.3,3.3,2.3,3.3c0.5,0.3,1.5,0.3,1.5,0.3c1.9-0.1,3-1.9,3-1.9
	c28.9-41.7,159.4-234.2,185.9-351.5c0,0,6.3-25,6.5-53v-2.8c-0.1-13.4-1.7-27.3-6-39.4c0,0-19.7-73.3-99.7-92.7c0,0-23-5.8-47.5-9.2
	C562.4,0,473.1,114.6,516.5,547.1z"/>
<radialGradient id="SVGID_6_" cx="246.1927" cy="748.5875" r="10" gradientTransform="matrix(70.9384 0 0 70.6527 -16845.3965 -52800.2305)" gradientUnits="userSpaceOnUse">
	<stop  offset="0" style="stop-color:#FAB8A0"/>
	<stop  offset="0.4" style="stop-color:#EE2C28"/>
	<stop  offset="0.8" style="stop-color:#DE1A21"/>
	<stop  offset="0.9" style="stop-color:#C9161D"/>
	<stop  offset="1" style="stop-color:#9A080C"/>
</radialGradient>
<path class="st6" d="M590.3,634c0,0-2.7,0.4-3.4,2.4c0,0-0.7,2.7,1.1,4.1c28.9,20.6,116.4,81.6,158.6,93.4c0,0,77.9,26.5,145.7-89.4
	C892.3,644.4,590.3,633.9,590.3,634z"/>
<radialGradient id="SVGID_7_" cx="246.1934" cy="748.5896" r="10" gradientTransform="matrix(70.8583 0 0 70.5728 -16826.0664 -52740.1836)" gradientUnits="userSpaceOnUse">
	<stop  offset="0" style="stop-color:#FAB8A0"/>
	<stop  offset="0.4" style="stop-color:#EE2C28"/>
	<stop  offset="0.8" style="stop-color:#DE1A21"/>
	<stop  offset="0.9" style="stop-color:#C9161D"/>
	<stop  offset="1" style="stop-color:#9A080C"/>
</radialGradient>
<path class="st7" d="M583.6,604.9c0,0-2.4,1.6-1.5,4.4c0,0,1.2,2.3,3.1,2.3c47.4,0.1,227.1,0.3,231.7-0.6c0,0,23.2-0.9,51.9-11.9
	c0,0,63.9-20.2,97.1-92.5c0,0,29.6-59,6.7-127.8C972.5,378.8,716.2,515.8,583.6,604.9z"/>
<radialGradient id="SVGID_8_" cx="246.1977" cy="748.5872" r="10" gradientTransform="matrix(70.8222 0 0 70.5369 -16817.3223 -52713.2344)" gradientUnits="userSpaceOnUse">
	<stop  offset="0" style="stop-color:#FAB8A0"/>
	<stop  offset="0.4" style="stop-color:#EE2C28"/>
	<stop  offset="0.8" style="stop-color:#DE1A21"/>
	<stop  offset="0.9" style="stop-color:#C9161D"/>
	<stop  offset="1" style="stop-color:#9A080C"/>
</radialGradient>
<path class="st8" d="M558.5,569.7c0,0-1.3,2.9,0.9,4.8c0,0,2.1,1.6,4.1,0.3c43.2-21.4,223-112.5,297.5-184.7
	c0,0,47.1-37.7,49.6-98.3c5.4-84.1-79.6-162-79.6-162S673.7,319.3,558.5,569.7z"/>
</svg>
