<svg xmlns="http://www.w3.org/2000/svg" viewBox="0 0 3231.09 2117.02"><defs><style>.cls-1{fill:#559dee;}.cls-2{fill:#004492;}.cls-3{fill:#2b72c4;}</style></defs><g id="Réteg_2" data-name="Réteg 2"><g id="Réteg_1" data-name="Réteg 1"><path d="M1124.41,1748.19a24.39,24.39,0,0,0-24.82-24.81h-75.47a24.39,24.39,0,0,0-24.82,24.81,25,25,0,0,0-25.16-24.81H899a25,25,0,0,0-25.16,24.81V1974h50v-200.6h50.32V1974h50v-200.6h50.31V1974h50Zm200.59,0a24.39,24.39,0,0,0-24.81-24.81h-100.3a25,25,0,0,0-25.16,24.81v200.6a25.55,25.55,0,0,0,25.16,25.16h100.29a25,25,0,0,0,24.82-25.16ZM1224.71,1924V1773.35H1275V1924Zm276.07-75.48a24.39,24.39,0,0,0,24.82-24.82v-75.48a24.39,24.39,0,0,0-24.82-24.81H1375.32V1974h125.46a25,25,0,0,0,24.82-25.16v-75.14a25,25,0,0,0-24.82-25.16Zm-75.48-24.82v-50.32h50.32v50.32Zm0,100.3v-50.32h50.32V1924Zm150.61-200.59V1974h50V1723.38ZM1726.19,1924V1723.38h-50V1974h150.27v-50Zm300.89-150.62v-50H1876.8V1974h150.28v-50h-100.3v-50.32h75.48v-50h-75.48v-50.32Z"/><path class="cls-1" d="M867.1,1382.49V630.25q0-34-23.79-58.91-24.93-23.79-58.91-23.78H450.2q-35.11,0-58.91,23.78-24.93,24.93-24.92,58.91v752.24H532.9v-334.2H700.57v334.2ZM700.57,881.75H532.9V714.09H700.57V881.75Z"/><path class="cls-1" d="M1225.63,1009.33,1121.92,622.22A229.67,229.67,0,0,0,959.55,459.84L572.45,356.11a229.62,229.62,0,0,0-221.8,59.44L67.26,698.93A229.6,229.6,0,0,0,7.83,920.72l103.72,387.11A229.61,229.61,0,0,0,273.91,1470.2L661,1573.93a229.64,229.64,0,0,0,221.8-59.43l283.38-283.37A229.61,229.61,0,0,0,1225.63,1009.33Zm-130.35,187.59L848.45,1443.74a200,200,0,0,1-193.18,51.76l-337.16-90.35a200,200,0,0,1-141.43-141.42L86.34,926.56a200,200,0,0,1,51.77-193.18L384.94,486.56A200,200,0,0,1,578.13,434.8l337.16,90.34a200,200,0,0,1,141.42,141.43L1147,1003.74A200,200,0,0,1,1095.28,1196.92Z"/><path class="cls-2" d="M2698.19,1333.18h166.53V1165.52q0-34-23.79-58.91-24.91-23.79-58.91-23.79h-334.2q-35.12,0-58.91,23.79-24.91,24.92-24.92,58.91v334.2q0,35.12,24.92,60,23.79,23.79,58.91,23.79h250.37v167.67H2530.52v-83.84H2364v166.54q0,35.11,24.92,58.91,23.79,24.92,58.91,24.92H2782q34,0,58.91-24.92,23.79-23.79,23.79-58.91v-334.2q0-34-23.79-58.91Q2816,1417,2782,1417h-251.5V1249.35h167.67Z"/><path class="cls-2" d="M3223.26,1544.59l-103.72-387.11a229.63,229.63,0,0,0-162.36-162.37L2570.07,891.38a229.6,229.6,0,0,0-221.8,59.43l-283.38,283.38a229.62,229.62,0,0,0-59.44,221.8l103.72,387.1a229.61,229.61,0,0,0,162.37,162.37l387.1,103.73a229.65,229.65,0,0,0,221.8-59.42l283.39-283.38A229.63,229.63,0,0,0,3223.26,1544.59ZM3092.9,1732.18,2846.08,1979a200,200,0,0,1-193.18,51.76l-337.17-90.35A200,200,0,0,1,2174.31,1799L2084,1461.83a200,200,0,0,1,51.76-193.19l246.83-246.82a200,200,0,0,1,193.19-51.76l337.17,90.35a200,200,0,0,1,141.41,141.42L3144.67,1539A200,200,0,0,1,3092.9,1732.18Z"/><path class="cls-3" d="M2030.92,199.27H1530.19V365.8h166.53v668.4h167.67V365.8h166.53Z"/><path class="cls-3" d="M2389.45,661.05,2285.74,273.94a229.64,229.64,0,0,0-162.37-162.38L1736.27,7.83a229.6,229.6,0,0,0-221.8,59.44L1231.08,350.64a229.62,229.62,0,0,0-59.43,221.8l103.72,387.11a229.63,229.63,0,0,0,162.36,162.37l387.11,103.73a229.66,229.66,0,0,0,221.8-59.43L2330,882.84A229.59,229.59,0,0,0,2389.45,661.05ZM2259.1,848.64l-246.83,246.81a200,200,0,0,1-193.18,51.77l-337.16-90.35A200,200,0,0,1,1340.5,915.44l-90.34-337.16a200,200,0,0,1,51.77-193.18l246.83-246.83A200,200,0,0,1,1742,86.51l337.16,90.35a200,200,0,0,1,141.42,141.42l90.33,337.17A200,200,0,0,1,2259.1,848.64Z"/></g></g></svg>