<svg xmlns="http://www.w3.org/2000/svg" xmlns:xlink="http://www.w3.org/1999/xlink" xmlns:inkscape="http://www.inkscape.org/namespaces/inkscape" version="1.1" width="4096" height="2731" viewBox="0 0 4096 2731">
<path transform="matrix(1,0,0,-1,0,2731)" d="M0 2731H4096V.3333333H0Z" fill="#ffffff"/>
<path transform="matrix(1,0,0,-1,0,2731)" d="M-876.5054 1599.491-803.5202 1326.028-529.133 1252.119-329.1168 1452.135-402.5638 1726.984-676.4891 1799.507-876.5054 1599.491Z" fill="#00458d"/>
<path transform="matrix(-4.619313,4.619313,-4.619313,-4.619313,-602.5801,1204.956)" stroke-width="41.8" stroke-linecap="round" stroke-linejoin="round" fill="none" stroke="#00458d" d="M21.7 37.6 43.4 .1 21.7-37.6H-21.6L-43.4 .1-21.6 37.6H21.7Z"/>
<path transform="matrix(1,0,0,-1,0,2731)" d="M2048-627.7183 2120.985-901.1816 2395.372-975.0906 2595.389-775.0743 2521.942-500.2252 2248.016-427.702 2048-627.7183Z" fill="#00458d"/>
<path transform="matrix(-4.619313,4.619313,-4.619313,-4.619313,2321.925,3432.1654)" stroke-width="41.8" stroke-linecap="round" stroke-linejoin="round" fill="none" stroke="#00458d" d="M21.7 37.6 43.4 .1 21.7-37.6H-21.6L-43.4 .1-21.6 37.6H21.7Z"/>
<path transform="matrix(1,0,0,-1,0,2731)" d="M1256.443-797.9385 1329.428-1071.402 1603.815-1145.311 1803.831-945.2946 1730.384-670.4454 1456.459-597.9222 1256.443-797.9385Z" fill="#00458d"/>
<path transform="matrix(-4.619313,4.619313,-4.619313,-4.619313,1530.368,3602.3858)" stroke-width="41.8" stroke-linecap="round" stroke-linejoin="round" fill="none" stroke="#00458d" d="M21.7 37.6 43.4 .1 21.7-37.6H-21.6L-43.4 .1-21.6 37.6H21.7Z"/>
<path transform="matrix(1,0,0,-1,0,2731)" d="M2619.745-1201.401 2692.73-1474.865 2967.117-1548.774 3167.134-1348.757 3093.687-1073.908 2819.761-1001.385 2619.745-1201.401Z" fill="#00458d"/>
<path transform="matrix(-4.619313,4.619313,-4.619313,-4.619313,2893.67,4005.8482)" stroke-width="41.8" stroke-linecap="round" stroke-linejoin="round" fill="none" stroke="#00458d" d="M21.7 37.6 43.4 .1 21.7-37.6H-21.6L-43.4 .1-21.6 37.6H21.7Z"/>
<path transform="matrix(1,0,0,-1,0,2731)" d="M1897.516 4080.326 1970.501 3806.863 2244.888 3732.954 2444.904 3932.97 2371.457 4207.819 2097.532 4280.343 1897.516 4080.326Z" fill="#3266a0"/>
<path transform="matrix(-4.619313,4.619313,-4.619313,-4.619313,2171.441,-1275.8789)" stroke-width="41.8" stroke-linecap="round" stroke-linejoin="round" fill="none" stroke="#2b72c4" d="M21.7 37.6 43.4 .1 21.7-37.6H-21.6L-43.4 .1-21.6 37.6H21.7Z"/>
<path transform="matrix(1,0,0,-1,0,2731)" d="M1119.906 3871.423 1192.891 3597.959 1467.279 3524.05 1667.295 3724.067 1593.848 3998.916 1319.922 4071.439 1119.906 3871.423Z" fill="#007ace"/>
<path transform="matrix(-4.619313,4.619313,-4.619313,-4.619313,1393.831,-1066.9761)" stroke-width="41.8" stroke-linecap="round" stroke-linejoin="round" fill="none" stroke="#559dee" d="M21.7 37.6 43.4 .1 21.7-37.6H-21.6L-43.4 .1-21.6 37.6H21.7Z"/>
<path transform="matrix(1,0,0,-1,0,2731)" d="M1174.867 3856.627 1233.196 3638.079 1452.483 3579.012 1612.334 3738.862 1553.636 3958.518 1334.718 4016.478 1174.867 3856.627Z" fill="#ffffff"/>
<path transform="matrix(-3.691697,3.691698,-3.691698,-3.691697,1393.785,-1066.929)" stroke-width="52.30312" stroke-linecap="round" stroke-linejoin="round" fill="none" stroke="#ffffff" d="M21.7 37.6 43.4 .1 21.7-37.6H-21.6L-43.4 .1-21.6 37.6H21.7Z"/>
<path transform="matrix(1,0,0,-1,0,2731)" d="M1952.708 4065.531 2011.037 3846.982 2230.324 3787.915 2390.174 3947.766 2331.476 4167.422 2112.559 4225.381 1952.708 4065.531Z" fill="#ffffff"/>
<path transform="matrix(-3.691697,3.691698,-3.691698,-3.691697,2171.626,-1275.833)" stroke-width="52.30312" stroke-linecap="round" stroke-linejoin="round" fill="none" stroke="#ffffff" d="M21.7 37.6 43.4 .1 21.7-37.6H-21.6L-43.4 .1-21.6 37.6H21.7Z"/>
<path transform="matrix(1,0,0,-1,0,2731)" d="M2524.206 3454.103 2597.191 3180.64 2871.579 3106.731 3071.595 3306.747 2998.148 3581.596 2724.222 3654.119 2524.206 3454.103Z" fill="#00458d"/>
<path transform="matrix(1,0,0,-1,0,2731)" d="M2471.945 3506.365 2544.93 3232.901 2819.317 3158.992 3019.333 3359.009 2945.886 3633.858 2671.961 3706.381 2471.945 3506.365Z" fill="#004492"/>
<path transform="matrix(-4.619313,4.619313,-4.619313,-4.619313,2745.87,-701.91799)" stroke-width="41.8" stroke-linecap="round" stroke-linejoin="round" fill="none" stroke="#004492" d="M21.7 37.6 43.4 .1 21.7-37.6H-21.6L-43.4 .1-21.6 37.6H21.7Z"/>
<path transform="matrix(1,0,0,-1,0,2731)" d="M2527.137 3491.569 2585.466 3273.021 2804.752 3213.954 2964.603 3373.804 2905.905 3593.46 2686.987 3651.42 2527.137 3491.569Z" fill="#ffffff"/>
<path transform="matrix(-3.691697,3.691698,-3.691698,-3.691697,2746.054,-701.8711)" stroke-width="52.30312" stroke-linecap="round" stroke-linejoin="round" fill="none" stroke="#ffffff" d="M21.7 37.6 43.4 .1 21.7-37.6H-21.6L-43.4 .1-21.6 37.6H21.7Z"/>
<path transform="matrix(1,0,0,-1,0,2731)" d="M14701.94-4149.099 14774.92-4422.562 15049.31-4496.471 15249.32-4296.455 15175.88-4021.606 14901.95-3949.083 14701.94-4149.099Z" fill="#00458d"/>
<path transform="matrix(1,0,0,-1,0,2731)" d="M14701.94-5671.161 14774.92-5944.624 15049.31-6018.533 15249.32-5818.517 15175.88-5543.668 14901.95-5471.145 14701.94-5671.161Z" fill="#00458d"/>
<path transform="matrix(1,0,0,-1,0,2731)" d="M12282.51-5617.127 12355.5-5890.591 12629.89-5964.5 12829.9-5764.484 12756.45-5489.634 12482.53-5417.111 12282.51-5617.127Z" fill="#00458d"/>
<path transform="matrix(1,0,0,-1,0,2731)" d="M12282.51-4158.887 12355.5-4432.351 12629.89-4506.26 12829.9-4306.243 12756.45-4031.394 12482.53-3958.871 12282.51-4158.887Z" fill="#00458d"/>
<path transform="matrix(1,0,0,-1,0,2731)" d="M1788.504 1909.463 1898.55 1497.139 2312.267 1385.7 2613.849 1687.282 2503.106 2101.695 2090.086 2211.045 1788.504 1909.463Z" fill="#3266a0"/>
<path transform="matrix(-6.964935,6.964935,-6.964935,-6.964935,2201.525,932.28)" stroke-width="41.8" stroke-linecap="round" stroke-linejoin="round" fill="none" stroke="#2b72c4" d="M21.7 37.6 43.4 .1 21.7-37.6H-21.6L-43.4 .1-21.6 37.6H21.7Z"/>
<path transform="matrix(1,0,0,-1,0,2731)" d="M616.0355 1594.481 726.0814 1182.157 1139.799 1070.718 1441.38 1372.3 1330.638 1786.713 917.6172 1896.063 616.0355 1594.481Z" fill="#007ace"/>
<path transform="matrix(-6.964935,6.964935,-6.964935,-6.964935,1029.056,1247.261)" stroke-width="41.8" stroke-linecap="round" stroke-linejoin="round" fill="none" stroke="#559dee" d="M21.7 37.6 43.4 .1 21.7-37.6H-21.6L-43.4 .1-21.6 37.6H21.7Z"/>
<path transform="matrix(1,0,0,-1,0,2731)" d="M698.9052 1572.173 786.8526 1242.648 1117.49 1153.588 1358.51 1394.608 1270.006 1725.802 939.9256 1813.193 698.9052 1572.173Z" fill="#ffffff"/>
<path transform="matrix(-5.566289,5.566289,-5.566289,-5.566289,1028.986,1247.331)" stroke-width="52.30312" stroke-linecap="round" stroke-linejoin="round" fill="none" stroke="#ffffff" d="M21.7 37.6 43.4 .1 21.7-37.6H-21.6L-43.4 .1-21.6 37.6H21.7Z"/>
<path transform="matrix(1,0,0,-1,0,2731)" d="M1871.722 1887.155 1959.67 1557.63 2290.307 1468.57 2531.327 1709.59 2442.823 2040.784 2112.742 2128.175 1871.722 1887.155Z" fill="#ffffff"/>
<path transform="matrix(-5.566289,5.566289,-5.566289,-5.566289,2201.803,932.349)" stroke-width="52.30312" stroke-linecap="round" stroke-linejoin="round" fill="none" stroke="#ffffff" d="M21.7 37.6 43.4 .1 21.7-37.6H-21.6L-43.4 .1-21.6 37.6H21.7Z"/>
<path transform="matrix(1,0,0,-1,0,2731)" d="M1279.569 1065.954C1279.569 1399.776 1279.569 1650.521 1279.569 1818.187 1279.569 1840.845 1271.638 1860.481 1255.778 1877.097 1239.162 1892.957 1219.526 1900.887 1196.868 1900.887 1048.083 1900.887 936.6832 1900.887 862.6683 1900.887 839.2554 1900.887 819.6188 1892.957 803.7584 1877.097 787.1429 1860.481 778.8351 1840.845 778.8351 1818.187 778.8351 1713.962 778.8351 1622.576 778.8351 1544.03 778.8351 1466.239 778.8351 1401.287 778.8351 1349.174 778.8351 1223.047 778.8351 1128.64 778.8351 1065.954 852.85 1065.954 908.3611 1065.954 945.3686 1065.954 945.3686 1214.739 945.3686 1326.139 945.3686 1400.154 1020.139 1400.154 1076.028 1400.154 1113.035 1400.154 1113.035 1251.369 1113.035 1139.969 1113.035 1065.954 1187.05 1065.954 1242.561 1065.954 1279.569 1065.954ZM1113.035 1566.687C1039.02 1566.687 983.1313 1566.687 945.3686 1566.687 945.3686 1641.458 945.3686 1697.346 945.3686 1734.354 1020.139 1734.354 1076.028 1734.354 1113.035 1734.354 1113.035 1673.178 1113.035 1627.108 1113.035 1596.142 1113.035 1583.303 1113.035 1573.485 1113.035 1566.687Z" fill="#559dee"/>
<path transform="matrix(1,0,0,-1,0,2731)" d="M2451.891 2215.839C2368.814 2215.839 2201.902 2215.839 1951.158 2215.839 1951.158 2202.244 1951.158 2181.475 1951.158 2153.53 1951.158 2125.586 1951.158 2090.844 1951.158 2049.305 1979.102 2049.305 2034.614 2049.305 2117.692 2049.305 2117.692 1937.528 2117.692 1714.728 2117.692 1380.906 2145.636 1380.906 2201.525 1380.906 2285.358 1380.906 2285.358 1491.928 2285.358 1714.728 2285.358 2049.305 2313.302 2049.305 2368.814 2049.305 2451.891 2049.305 2451.891 2086.313 2451.891 2141.824 2451.891 2215.839Z" fill="#2b72c4"/>
<path transform="matrix(1,0,0,-1,0,2731)" d="M2733.419 965.2526 2843.465 552.9285 3257.182 441.4896 3558.764 743.0712 3448.021 1157.485 3035.001 1266.834 2733.419 965.2526Z" fill="#00458d"/>
<path transform="matrix(1,0,0,-1,0,2731)" d="M2654.62 1044.052 2764.666 631.7277 3178.383 520.2888 3479.965 821.8705 3369.222 1236.284 2956.201 1345.634 2654.62 1044.052Z" fill="#004492"/>
<path transform="matrix(-6.964935,6.964935,-6.964935,-6.964935,3067.64,1797.6907)" stroke-width="41.8" stroke-linecap="round" stroke-linejoin="round" fill="none" stroke="#004492" d="M21.7 37.6 43.4 .1 21.7-37.6H-21.6L-43.4 .1-21.6 37.6H21.7Z"/>
<path transform="matrix(1,0,0,-1,0,2731)" d="M2737.838 1021.743 2825.785 692.2192 3156.423 603.1586 3397.443 844.1789 3308.939 1175.373 2978.858 1262.764 2737.838 1021.743Z" fill="#ffffff"/>
<path transform="matrix(-5.566289,5.566289,-5.566289,-5.566289,3067.919,1797.7605)" stroke-width="52.30312" stroke-linecap="round" stroke-linejoin="round" fill="none" stroke="#ffffff" d="M21.7 37.6 43.4 .1 21.7-37.6H-21.6L-43.4 .1-21.6 37.6H21.7Z"/>
<path transform="matrix(1,0,0,-1,0,2731)" d="M3153.917 1100.061C3227.931 1100.061 3283.443 1100.061 3320.45 1100.061 3320.45 1174.076 3320.45 1229.965 3320.45 1267.728 3320.45 1290.385 3312.52 1310.022 3296.66 1326.637 3280.044 1342.498 3260.407 1350.428 3237.75 1350.428 3088.965 1350.428 2977.565 1350.428 2903.55 1350.428 2880.137 1350.428 2860.5 1342.498 2844.64 1326.637 2828.024 1310.022 2819.717 1290.385 2819.717 1267.728 2819.717 1193.713 2819.717 1128.761 2819.717 1072.872 2819.717 1016.983 2819.717 970.535 2819.717 933.5276 2819.717 910.1147 2828.024 890.1005 2844.64 873.4849 2860.5 857.6246 2880.137 849.6944 2903.55 849.6944 3014.572 849.6944 3098.028 849.6944 3153.917 849.6944 3153.917 775.6795 3153.917 719.7907 3153.917 682.028 3079.902 682.028 3024.013 682.028 2986.25 682.028 2986.25 719.7907 2986.25 747.7351 2986.25 765.8612 2912.235 765.8612 2856.724 765.8612 2819.717 765.8612 2819.717 691.8463 2819.717 636.3351 2819.717 599.3277 2819.717 575.9148 2828.024 556.2782 2844.64 540.4179 2860.5 523.8023 2880.137 515.4945 2903.55 515.4945 3051.58 515.4945 3162.98 515.4945 3237.75 515.4945 3260.407 515.4945 3280.044 523.8023 3296.66 540.4179 3312.52 556.2782 3320.45 575.9148 3320.45 599.3277 3320.45 747.3575 3320.45 858.7575 3320.45 933.5276 3320.45 956.1852 3312.52 975.8218 3296.66 992.4374 3280.044 1008.298 3260.407 1016.228 3237.75 1016.228 3125.972 1016.228 3042.139 1016.228 2986.25 1016.228 2986.25 1090.998 2986.25 1146.887 2986.25 1183.894 3061.02 1183.894 3116.909 1183.894 3153.917 1183.894 3153.917 1146.887 3153.917 1118.942 3153.917 1100.061Z" fill="#004492"/>
<path transform="matrix(1,0,0,-1,0,2731)" d="M1563.833 746.0398C1563.833 752.8396 1561.453 758.7327 1556.693 763.7191 1551.707 768.4789 1545.814 770.8588 1539.014 770.8588 1505.468 770.8588 1480.309 770.8588 1463.537 770.8588 1456.737 770.8588 1450.844 768.4789 1445.857 763.7191 1441.098 758.7327 1438.718 752.8396 1438.718 746.0398 1438.718 752.8396 1436.225 758.7327 1431.238 763.7191 1426.478 768.4789 1420.585 770.8588 1413.559 770.8588 1380.013 770.8588 1354.968 770.8588 1338.422 770.8588 1331.395 770.8588 1325.502 768.4789 1320.742 763.7191 1315.756 758.7327 1313.263 752.8396 1313.263 746.0398 1313.263 714.7611 1313.263 687.3355 1313.263 663.7631 1313.263 640.4173 1313.263 620.9248 1313.263 605.2854 1313.263 567.4336 1313.263 539.1014 1313.263 520.2888 1335.475 520.2888 1352.135 520.2888 1363.241 520.2888 1363.241 609.3652 1363.241 676.2293 1363.241 720.8808 1385.68 720.8808 1402.453 720.8808 1413.559 720.8808 1413.559 631.8044 1413.559 564.9403 1413.559 520.2888 1435.771 520.2888 1452.431 520.2888 1463.537 520.2888 1463.537 609.3652 1463.537 676.2293 1463.537 720.8808 1485.976 720.8808 1502.749 720.8808 1513.855 720.8808 1513.855 631.8044 1513.855 564.9403 1513.855 520.2888 1536.067 520.2888 1552.727 520.2888 1563.833 520.2888 1563.833 620.4715 1563.833 695.7218 1563.833 746.0398ZM1764.425 746.0398C1764.425 752.8396 1762.045 758.7327 1757.285 763.7191 1752.299 768.4789 1746.406 770.8588 1739.606 770.8588 1694.954 770.8588 1661.522 770.8588 1639.31 770.8588 1632.283 770.8588 1626.39 768.4789 1621.631 763.7191 1616.644 758.7327 1614.151 752.8396 1614.151 746.0398 1614.151 718.1609 1614.151 693.6819 1614.151 672.6027 1614.151 651.9769 1614.151 634.7509 1614.151 620.9248 1614.151 587.3795 1614.151 562.2204 1614.151 545.4478 1614.151 538.4214 1616.644 532.5283 1621.631 527.7685 1626.39 522.782 1632.283 520.2888 1639.31 520.2888 1683.735 520.2888 1717.167 520.2888 1739.606 520.2888 1746.406 520.2888 1752.299 522.782 1757.285 527.7685 1762.045 532.5283 1764.425 538.4214 1764.425 545.4478 1764.425 634.5243 1764.425 701.3883 1764.425 746.0398ZM1664.129 570.2668C1664.129 603.8121 1664.129 628.9711 1664.129 645.7438 1664.129 679.0625 1664.129 704.1082 1664.129 720.8808 1686.568 720.8808 1703.341 720.8808 1714.447 720.8808 1714.447 658.3233 1714.447 611.4052 1714.447 580.1264 1714.447 575.8199 1714.447 572.5334 1714.447 570.2668 1692.234 570.2668 1675.462 570.2668 1664.129 570.2668ZM1940.198 645.7438C1946.998 645.7438 1952.891 648.1237 1957.877 652.8835 1962.637 657.87 1965.017 663.7631 1965.017 670.5628 1965.017 704.1082 1965.017 729.2672 1965.017 746.0398 1965.017 752.8396 1962.637 758.7327 1957.877 763.7191 1952.891 768.4789 1946.998 770.8589 1940.198 770.8589 1906.653 770.8589 1881.494 770.8589 1864.721 770.8589 1842.508 770.8589 1825.849 770.8588 1814.743 770.8588 1814.743 748.6464 1814.743 731.9871 1814.743 720.8808 1814.743 709.7746 1814.743 700.0283 1814.743 691.642 1814.743 683.2557 1814.743 676.2293 1814.743 670.5628 1814.743 648.3504 1814.743 631.691 1814.743 620.5848 1814.743 598.3724 1814.743 581.5997 1814.743 570.2668 1814.743 548.0543 1814.743 531.395 1814.743 520.2888 1836.955 520.2888 1853.615 520.2888 1864.721 520.2888 1898.266 520.2888 1923.425 520.2888 1940.198 520.2888 1946.998 520.2888 1952.891 522.782 1957.877 527.7685 1962.637 532.5283 1965.017 538.4214 1965.017 545.4478 1965.017 578.7665 1965.017 603.8121 1965.017 620.5848 1965.017 627.6112 1962.637 633.5043 1957.877 638.2641 1952.891 643.2506 1946.998 645.7438 1940.198 645.7438ZM1864.721 670.5628C1864.721 693.0019 1864.721 709.7746 1864.721 720.8808 1887.16 720.8808 1903.933 720.8808 1915.039 720.8808 1915.039 702.5216 1915.039 688.6954 1915.039 679.4025 1915.039 675.5493 1915.039 672.6027 1915.039 670.5628 1892.826 670.5628 1876.054 670.5628 1864.721 670.5628ZM1864.721 570.2668C1864.721 592.7059 1864.721 609.4786 1864.721 620.5848 1887.16 620.5848 1903.933 620.5848 1915.039 620.5848 1915.039 602.2255 1915.039 588.3994 1915.039 579.1064 1915.039 575.2533 1915.039 572.3067 1915.039 570.2668 1892.826 570.2668 1876.054 570.2668 1864.721 570.2668ZM2015.335 770.8589C2015.335 715.1011 2015.335 666.3697 2015.335 624.6646 2015.335 582.9596 2015.335 548.1677 2015.335 520.2888 2040.494 520.2888 2057.153 520.2888 2065.313 520.2888 2065.313 551.5675 2065.313 572.42 2065.313 582.8463 2065.313 676.9092 2065.313 739.5801 2065.313 770.8589 2040.381 770.8589 2023.721 770.8589 2015.335 770.8589ZM2165.609 570.2668C2165.609 603.8121 2165.609 670.6762 2165.609 770.8589 2157.449 770.8589 2140.79 770.8589 2115.631 770.8589 2115.631 750.0063 2115.631 718.7276 2115.631 677.0226 2115.631 635.3176 2115.631 583.073 2115.631 520.2888 2117.671 520.2888 2121.864 520.2888 2128.21 520.2888 2134.557 520.2888 2147.023 520.2888 2165.609 520.2888 2182.382 520.2888 2215.814 520.2888 2265.905 520.2888 2265.905 531.395 2265.905 548.0544 2265.905 570.2668 2243.693 570.2668 2210.261 570.2668 2165.609 570.2668ZM2466.497 720.8808C2466.497 729.2672 2466.497 745.9265 2466.497 770.8589 2449.951 770.8589 2416.519 770.8589 2366.201 770.8589 2358.041 770.8589 2341.382 770.8589 2316.223 770.8589 2316.223 762.4725 2316.223 745.8132 2316.223 720.8808 2316.223 712.4945 2316.223 695.7218 2316.223 670.5628 2316.223 662.4032 2316.223 645.7438 2316.223 620.5848 2316.223 615.145 2316.223 608.232 2316.223 599.8456 2316.223 591.4593 2316.223 581.5997 2316.223 570.2668 2316.223 559.1606 2316.223 542.5012 2316.223 520.2888 2327.329 520.2888 2343.989 520.2888 2366.201 520.2888 2388.64 520.2888 2422.072 520.2888 2466.497 520.2888 2466.497 531.395 2466.497 548.0544 2466.497 570.2668 2444.285 570.2668 2410.853 570.2668 2366.201 570.2668 2366.201 581.5997 2366.201 598.3724 2366.201 620.5848 2382.974 620.5848 2408.133 620.5848 2441.678 620.5848 2441.678 631.691 2441.678 648.3504 2441.678 670.5628 2424.905 670.5628 2399.746 670.5628 2366.201 670.5628 2366.201 681.8957 2366.201 698.6684 2366.201 720.8808 2388.64 720.8808 2422.072 720.8808 2466.497 720.8808Z"/>
<path transform="matrix(1,0,0,-1,0,2731)" d="M9929.987-4221.284 10002.97-4494.748 10277.36-4568.657 10477.38-4368.64 10403.93-4093.791 10130-4021.268 9929.987-4221.284Z" fill="#00458d"/>
<path transform="matrix(1,0,0,-1,0,2731)" d="M7452.416-4204.06 7525.401-4477.523 7799.788-4551.432 7999.804-4351.416 7926.357-4076.567 7652.432-4004.044 7452.416-4204.06Z" fill="#00458d"/>
<path transform="matrix(1,0,0,-1,0,2731)" d="M5047.18-4259.021 5120.166-4532.485 5394.553-4606.394 5594.569-4406.377 5521.122-4131.528 5247.197-4059.005 5047.18-4259.021Z" fill="#00458d"/>
<path transform="matrix(1,0,0,-1,0,2731)" d="M5033.888-2791.271 5106.874-3064.735 5381.261-3138.644 5581.277-2938.627 5507.83-2663.778 5233.905-2591.255 5033.888-2791.271Z" fill="#00458d"/>
<path transform="matrix(1,0,0,-1,0,2731)" d="M4985.472-1323.521 5058.457-1596.985 5332.844-1670.894 5532.86-1470.877 5459.413-1196.028 5185.488-1123.505 4985.472-1323.521Z" fill="#00458d"/>
</svg>
